PathFileType	4	(X/Y/Z)	/Users/itak/Documents/Research/Walk-IL/dataset/trc/00017_00004.trc
DataRate	CameraRate	NumFrames	NumMarkers	Units	OrigDataRate	OrigDataStartFrame	OrigNumFrames
100.000000	100.000000	4	56	mm	100.000000	110	441
Frame#	Time	RPSI			LPSI			L3			STRN			T10			C7			CLAV			RBAK			LBAK			LSHO			LUPA			LAEL			LAOL			LWTS			LWPS			LFRA			LIFD			LHPS			LHTS			RSHO			RUPA			RAEL			RAOL			RWTS			RWPS			RFRA			RIFD			RHTS			RHPS			RBHD			LFHD			RFHD			LBHD			LHIP			RHIP			RASI			LASI			LKNE			LANK			LTIP			LTOE			LMT1			LMT5			LHEE			RKNE			RTHI			RANK			RTIP			RTOE			RMT1			RMT5			RHEE			LTHI			*53			*54			*55			
		X1	Y1	Z1	X2	Y2	Z2	X3	Y3	Z3	X4	Y4	Z4	X5	Y5	Z5	X6	Y6	Z6	X7	Y7	Z7	X8	Y8	Z8	X9	Y9	Z9	X10	Y10	Z10	X11	Y11	Z11	X12	Y12	Z12	X13	Y13	Z13	X14	Y14	Z14	X15	Y15	Z15	X16	Y16	Z16	X17	Y17	Z17	X18	Y18	Z18	X19	Y19	Z19	X20	Y20	Z20	X21	Y21	Z21	X22	Y22	Z22	X23	Y23	Z23	X24	Y24	Z24	X25	Y25	Z25	X26	Y26	Z26	X27	Y27	Z27	X28	Y28	Z28	X29	Y29	Z29	X30	Y30	Z30	X31	Y31	Z31	X32	Y32	Z32	X33	Y33	Z33	X34	Y34	Z34	X35	Y35	Z35	X36	Y36	Z36	X37	Y37	Z37	X38	Y38	Z38	X39	Y39	Z39	X40	Y40	Z40	X41	Y41	Z41	X42	Y42	Z42	X43	Y43	Z43	X44	Y44	Z44	X45	Y45	Z45	X46	Y46	Z46	X47	Y47	Z47	X48	Y48	Z48	X49	Y49	Z49	X50	Y50	Z50	X51	Y51	Z51	X52	Y52	Z52	X53	Y53	Z53	X54	Y54	Z54	X55	Y55	Z55	X56	Y56	Z56	

111	1.1	493.5657348632812	1059.729614257812	-251.1978454589844	461.8722839355469	1053.197875976562	-410.0164489746094	475.2560424804688	1124.98828125	-343.0416564941406	706.8345947265625	1314.516967773438	-366.9971923828125	457.9596862792969	1270.022094726562	-354.9430847167969	509.3783569335938	1536.05908203125	-376.5894470214844	666.7647094726562	1441.437744140625	-372.4427490234375	458.5879821777344	1402.233520507812	-290.3328247070312	489.6517333984375	1491.889282226562	-473.6543884277344	592.094482421875	1495.149536132812	-548.8541259765625	566.2664794921875	1369.9697265625	-626.9580688476562	583.1551513671875	1151.3193359375	-651.2786865234375	519.4524536132812	1134.831298828125	-568.8587646484375	689.9512939453125	911.0703125	-578.5152587890625	622.4652709960938	886.8839111328125	-631.2473754882812	608.0911254882812	1037.02587890625	-653.2228393554688	737.0565185546875	732.7305297851562	-551.40625	666.2977294921875	802.0203247070312	-623.3387451171875	726.1683959960938	823.1461791992188	-588.5822143554688	593.2224731445312	1524.40576171875	-203.3476257324219	580.9793701171875	1455.306396484375	-128.7213592529297	534.9451904296875	1189.978515625	-96.09894561767578	529.879638671875	1159.171508789062	-191.2436218261719	639.3079223632812	919.0245361328125	-114.9926071166992	572.7764892578125	914.1987915039062	-52.02908325195312	543.114501953125	1115.302978515625	-77.88207244873047	637.58740234375	730.6376953125	-120.5182418823242	659.5715942382812	806.4278564453125	-95.15348815917969	602.5039672851562	810.4389038085938	-47.16387176513672	558.5936279296875	1708.535400390625	-301.0147705078125	733.5172119140625	1736.583984375	-416.6075744628906	730.319091796875	1737.76806640625	-317.6383361816406	554.4856567382812	1710.70849609375	-445.3222351074219	534.3816528320312	951.7203369140625	-529.48681640625	629.7275390625	962.0963134765625	-170.4124450683594	710.8409423828125	992.9796752929688	-261.6587219238281	660.93017578125	1001.326965332031	-492.061767578125	627.079833984375	512.0682373046875	-478.8039245605469	503.951416015625	29.83963012695312	-429.1606750488281	537.03271484375	275.2249145507812	-466.9697875976562	726.6243896484375	34.07476425170898	-369.3199157714844	667.9434204101562	44.24646377563477	-352.5945739746094	628.9765014648438	28.57980537414551	-452.3849792480469	437.734619140625	42.51929092407227	-373.8182983398438	740.4140625	538.3521118164062	-189.3950653076172	682.6642456054688	805.7421875	-168.1814422607422	524.3298950195312	80.28681182861328	-177.4344177246094	698.0891723632812	412.8880615234375	-175.8402709960938	755.0576782226562	44.57383346557617	-188.9300537109375	696.4881591796875	54.78837966918945	-227.572265625	665.6734008789062	55.29030227661133	-135.7440795898438	474.5298156738281	85.09072113037109	-229.0649871826172	583.8164672851562	644.9877319335938	-512.6898803710938	nan	nan	nan	nan	nan	nan	nan	nan	nan	
112	1.11	487.8981323242188	1060.1396484375	-251.2214508056641	456.6303405761719	1053.522583007812	-410.2244262695312	469.8842163085938	1125.036254882812	-343.0455017089844	700.9669189453125	1314.829711914062	-367.0399169921875	452.3513488769531	1270.12939453125	-354.606201171875	503.343505859375	1536.256958007812	-376.3524780273438	660.8106079101562	1441.7099609375	-372.4994506835938	452.8699951171875	1402.3251953125	-289.9702453613281	483.5592041015625	1491.999145507812	-473.3904724121094	585.8961791992188	1495.321899414062	-548.7962036132812	559.7516479492188	1369.9638671875	-626.7178955078125	575.3289184570312	1151.233764648438	-650.65869140625	512.249267578125	1135.35791015625	-567.5618286132812	677.822509765625	908.097412109375	-580.4443969726562	608.8910522460938	885.8673095703125	-632.1243286132812	598.095458984375	1036.495727539062	-653.2379150390625	720.6321411132812	728.2830200195312	-554.9679565429688	650.581787109375	799.89306640625	-625.3807983398438	711.3104858398438	818.9536743164062	-591.3016357421875	587.5018310546875	1524.687133789062	-203.2477416992188	575.7531127929688	1455.429809570312	-128.5846252441406	531.7077026367188	1189.64697265625	-95.90960693359375	526.1406860351562	1158.953735351562	-191.0561065673828	638.47705078125	919.7127685546875	-116.2114181518555	572.4815063476562	914.0732421875	-52.76840209960938	540.5957641601562	1114.920532226562	-77.91824340820312	639.1663208007812	731.434326171875	-121.8283462524414	660.1051025390625	807.3311767578125	-96.71696472167969	603.4176635742188	810.6383056640625	-48.26055145263672	552.5513916015625	1708.8828125	-300.9666748046875	727.5133056640625	1736.901245117188	-416.6482238769531	724.3240356445312	1738.078247070312	-317.6508483886719	548.4202880859375	1711.049682617188	-445.2620239257812	529.4186401367188	952.0947265625	-529.59326171875	623.5370483398438	962.0160522460938	-170.0872039794922	705.1553955078125	992.9307250976562	-260.9581909179688	656.1043701171875	1001.643859863281	-491.6034851074219	623.1492309570312	512.6922607421875	-478.2349243164062	503.8468627929688	29.6859302520752	-429.3600463867188	534.8670654296875	275.3550109863281	-466.8393859863281	726.4547729492188	34.17813491821289	-369.1878662109375	667.773681640625	44.23408508300781	-352.5178527832031	628.9342651367188	28.60240364074707	-452.3402404785156	437.5687866210938	42.00360488891602	-374.0255432128906	729.3753051757812	536.5526123046875	-188.1456146240234	674.8726196289062	804.9854736328125	-167.6107177734375	501.8184204101562	84.03723907470703	-177.1888427734375	684.0753784179688	412.0319213867188	-174.7820739746094	731.7892456054688	43.80893325805664	-186.6966400146484	673.7821655273438	54.84608459472656	-225.9151611328125	642.2499389648438	56.47582244873047	-134.3014526367188	452.4663696289062	89.53551483154297	-229.30126953125	579.6945190429688	645.3697509765625	-512.3906860351562	nan	nan	nan	nan	nan	nan	nan	nan	nan	
113	1.12	482.2416687011719	1060.478149414062	-251.2088775634766	451.4262084960938	1053.809448242188	-410.4010620117188	464.5045166015625	1125.018676757812	-343.0021667480469	695.0802612304688	1315.080078125	-367.0413208007812	446.7265625	1270.165649414062	-354.217529296875	497.2871398925781	1536.388305664062	-376.0386352539062	654.8339233398438	1441.909912109375	-372.497314453125	447.1651916503906	1402.341552734375	-289.5377502441406	477.4493103027344	1492.049438476562	-473.0504455566406	579.6740112304688	1495.44775390625	-548.6756591796875	553.1640625	1369.909057617188	-626.3983154296875	567.3809814453125	1151.1240234375	-649.987060546875	504.9425964355469	1135.847412109375	-566.1970825195312	665.5640258789062	905.2676391601562	-582.2713623046875	595.2470092773438	884.9833984375	-632.85498046875	587.9953002929688	1035.996337890625	-653.1668701171875	704.0836181640625	724.1094970703125	-558.3848266601562	634.7711181640625	797.9810791015625	-627.248779296875	696.2608642578125	814.9012451171875	-593.856201171875	581.7770385742188	1524.88134765625	-203.0679931640625	570.5244140625	1455.450927734375	-128.3867034912109	528.5803833007812	1189.20458984375	-95.68845367431641	522.5106201171875	1158.620361328125	-190.8297424316406	637.8939208984375	920.3794555664062	-117.4515075683594	572.46533203125	913.8878784179688	-53.52257537841797	538.2484130859375	1114.43212890625	-77.92748260498047	641.0889282226562	732.2227172851562	-123.1950073242188	660.982421875	808.2522583007812	-98.30776977539062	604.6823120117188	810.8134155273438	-49.38157653808594	546.4890747070312	1709.1708984375	-300.8385620117188	721.4908447265625	1737.15869140625	-416.6224365234375	718.3236694335938	1738.334228515625	-317.6009216308594	542.3248901367188	1711.334838867188	-445.1220397949219	524.5629272460938	952.447021484375	-529.6749267578125	617.3262329101562	961.8568725585938	-169.695556640625	699.4728393554688	992.8005981445312	-260.1719055175781	651.3746948242188	1001.944396972656	-491.0782775878906	619.3212280273438	513.2828369140625	-477.6736450195312	503.7500915527344	29.54791069030762	-429.5629272460938	532.7727661132812	275.4640197753906	-466.7066345214844	726.2769775390625	34.21564483642578	-369.0293273925781	667.5969848632812	44.20906829833984	-352.4245300292969	628.8944702148438	28.63320350646973	-452.2897644042969	437.4058227539062	41.54521560668945	-374.2192993164062	718.1636352539062	534.7008666992188	-186.8587646484375	667.0481567382812	804.189208984375	-167.0146026611328	479.2862854003906	88.00176239013672	-176.9363098144531	669.8809204101562	411.1797485351562	-173.7570343017578	708.39453125	43.20381546020508	-184.8196411132812	650.9017944335938	55.10338973999023	-224.5089263916016	618.823974609375	57.77809143066406	-133.0814971923828	430.3804931640625	94.25417327880859	-229.4424743652344	575.6629638671875	645.7252197265625	-512.111572265625	nan	nan	nan	nan	nan	nan	nan	nan	nan	
114	1.13	476.5840148925781	1060.748779296875	-251.1650543212891	446.2572631835938	1054.0673828125	-410.5498657226562	459.109375	1124.9462890625	-342.9140930175781	689.1749267578125	1315.276489257812	-366.9942321777344	441.0721740722656	1270.142822265625	-353.7810668945312	491.204833984375	1536.462280273438	-375.64794921875	648.8377075195312	1442.050903320312	-372.4319458007812	441.4714050292969	1402.299072265625	-289.0324096679688	471.3193664550781	1492.050048828125	-472.6315307617188	573.4256591796875	1495.54052734375	-548.4880981445312	546.502685546875	1369.827514648438	-626.002685546875	559.3099365234375	1151.011962890625	-649.2673950195312	497.5176696777344	1136.318115234375	-564.787109375	653.1836547851562	902.606201171875	-583.9642333984375	581.568603515625	884.2533569335938	-633.4403686523438	577.7954711914062	1035.544921875	-653.0086669921875	687.4479370117188	720.2529296875	-561.6096801757812	618.9172973632812	796.3084106445312	-628.9254150390625	681.1173706054688	811.1126098632812	-596.2560424804688	576.0462646484375	1525.00341796875	-202.8087005615234	565.2924194335938	1455.387817382812	-128.1265411376953	525.5560913085938	1188.671630859375	-95.44076538085938	518.9912109375	1158.190307617188	-190.5672912597656	637.5396118164062	921.045166015625	-118.7194290161133	572.7140502929688	913.6660766601562	-54.29584503173828	536.0678100585938	1113.863159179688	-77.91501617431641	643.268798828125	733.0208129882812	-124.6564178466797	662.1658935546875	809.2092895507812	-99.93582916259766	606.2545166015625	810.9882202148438	-50.54357147216797	540.4096069335938	1709.412353515625	-300.6297607421875	715.4457397460938	1737.3623046875	-416.523681640625	712.3113403320312	1738.542114257812	-317.4843139648438	536.199951171875	1711.574462890625	-444.9024963378906	519.8403930664062	952.7902221679688	-529.7201538085938	611.0946044921875	961.6312866210938	-169.2435302734375	693.7869262695312	992.6046142578125	-259.3009643554688	646.724609375	1002.237915039062	-490.4783020019531	615.58203125	513.8460083007812	-477.1268005371094	503.6607971191406	29.41908264160156	-429.7669982910156	530.74072265625	275.5569763183594	-466.57080078125	726.090576171875	34.18523406982422	-368.8511352539062	667.4175415039062	44.17423629760742	-352.3187866210938	628.8560791015625	28.67235946655273	-452.2350158691406	437.25732421875	41.14420318603516	-374.3989562988281	706.7928466796875	532.8202514648438	-185.5452423095703	659.2115478515625	803.378173828125	-166.407470703125	456.7723388671875	92.18408966064453	-176.6813354492188	655.5283203125	410.3511657714844	-172.7651977539062	684.9058227539062	42.76157760620117	-183.2676696777344	627.885498046875	55.57608795166016	-223.3245239257812	595.4166259765625	59.19346618652344	-132.0635681152344	408.318359375	99.2496337890625	-229.4982604980469	571.6800537109375	646.0682373046875	-511.8573303222656	nan	nan	nan	nan	nan	nan	nan	nan	nan	
